/* XPM */
static char *pptp__3[] = {
/* columns rows colors chars-per-pixel */
"32 32 15 1 ",
"  c #F8EF04",
". c #8E8C7C",
"X c #EDE748",
"o c #5856B9",
"O c #0000F9",
"+ c #0202F9",
"@ c #0404F9",
"# c #0000FC",
"$ c #1919F4",
"% c #3231EC",
"& c #5656F7",
"* c #9696F6",
"= c #D6D6F6",
"- c #FDFDFA",
"; c None",
/* pixels */
";;;;;;;;;;;;;;;;;;;;;;;;;;;;;;;;",
";;;;;;;;*=;;;;;;;;;;;;&*;;;;;;;;",
";;;;;;;&%;;;;;;;;;;;;;&O&=;;;;;;",
";;;;;=%O&;;;;;;;;;;;;;*@O%=;;-;;",
";;;;=%#@&;;;;;;;;;;;;;*O$#%=;;;;",
";;;;&#@O%;;;;;;;;;;;;;&#@@O&;;;;",
";;;*O@OOO*;;;;;;;;;;-=@OOO@O*;;;",
";;=$O@OOO$=;;;;;;;;;=%O@OO@O$=;;",
";;*O@OOOO#$*;;;;;;;*%#OOOOO@O*;;",
";;%@@OOOO@#O%*****&O#@OOOOOO@%;;",
";*O@OOOOOOO@#OOOOOOOOOOOOOOO@O=;",
";*O@OOOOOOOO@@@O@@@OOOOOOOOO@O*;",
";&O@OOOOOOOOOOOOOOOOOOOOOOOO@#&;",
";%OOOOOOOOOOOOOOOOOOOOOOOOOO@#$;",
";$#@OOOOOOOOOOOOOOOOOOOOOOOOOO$;",
";$#OOOOOOOOOOOOOOOOOOOOOOOOO@O$;",
";$#OOOOOOOOOOOOOOOOOOOOOOOOO@O$;",
";%O@OOOOOOOOOOOOOOOOOOOOOOOO@#%;",
";&#@OOOOOOOOOOOOOOOOOOOOOOOO@#&;",
";*O@OOOOOOOOOOOOOOOOOOOOOOOO@O*;",
";=@@OOOOOOOOOOOOOOOO@OOOOOOOO@=;",
";;%#@OOOOOO@OOOOOOOOOOOOOOO@@%;;",
";;*O@OOOO###O#OOOOOO@#O#OOO@O*;;",
";;;&#@OOO@.%#@@OO@@#.o#@#O@#&;;;",
";;;=$@O@#o X$######.  o#@@@$=;;;",
";;;-*O@#%   Xo$$$%.    %#@O*;;;;",
";;;;;&#%       XX       o#&;;;;;",
";;;;;;&%X              Xo&;;;;;;",
";;;;;;;*%.            .%*;;;;;;;",
";;;;;;;;=&o.        oo&=;;;;;;;;",
";;;;;;;;;;=*XXX  XX=*=;;;;;;;;;;",
";;;;;;;;;;;;;;;;;;;;;;;;;;;;;;;;"
};
