/* XPM */
static char *pptp__0[] = {
/* columns rows colors chars-per-pixel */
"128 128 16 1 ",
"  c #E8DE16",
". c #FDF100",
"X c #FBF125",
"o c #9D9763",
"O c #0000FD",
"+ c #0101FD",
"@ c #0303FC",
"# c #0000FE",
"$ c blue",
"% c #0F0FF9",
"& c #2F2EEF",
"* c #5A59E9",
"= c #9F9FFD",
"- c #EDEDFD",
"; c #FDFDF4",
": c None",
/* pixels */
"::::::::::::::::::::::::::::::::::::::::::::::::::::::::::::::::::::::::::::::::::::::::::::::::::::::::::::::::::::::::::::::::",
"::::::::::::::::::::::::::::::::::::::::::::::::::::::::::::::::::::::::::::::::::::::::::::::::::::::::::::::::::::::::::::::::",
":::::::::::::::::::::::::::::::::::::::::::::::::::::::::::::::::::::::::::::::::::::::**=-:::::::::::::::::::::::::::::::::::::",
":::::::::::::::::::::::::::::::::::=-::::::::::::::::::::::::::::::::::::::::::::::::::=OO&=-:::::::::::::::::::::::::::::::::::",
":::::::::::::::::::::::::::::::::-*O=:::::::::::::::::::::::::::::::::::::::::::::::::::&@OO%*::::::::::::::::::::::::::::::::::",
"::::::::::::::::::::::::::::::::-&O&::::::::::::::::::::::::::::::::::::::::::::::::::::=O@@OO*=::::::::::::::::::::::::::::::::",
"::::::::::::::::::::::::::::::-*%OO=:::::::::::::::::::::::::::::::::::::::::::::::::::::&O@O@OO=:::::::::::::::::::::::::::::::",
":::::::::::::::::::::::::::::=&OO@%-:::::::::::::::::::::::::::::::::::::::::::::::::::-:=O@OO@@O&=:-:::::::::::::::::::::::::::",
"::::::::::::::::::::::::::::=OO@@O*::::::::::::::::::::::::::::::::::::::::::::::::::::::-@OOOOO@O@=::::::::::::::::::::::::::::",
"::::::::::::::::::::::::::-&O@@O@O=:::::::::::::::::::::::::::::::::::::::::::::::::::::::&O@OOOO@OO=-::::::::::::::::::::::::::",
":::::::::::::::::::::::::=*O@OOO@O-:::::::::::::::::::::::::::::::::::::::::::::::::::::::*O@OOOOO@OO&=:::::::::::::::::::::::::",
"::::::::::::::::::::::::*OOOOOO@O%-:::::::::::::::::::::::::::::::::::::::::::::::::::::-:=O@OOOOOOO@O@=:-::::::::::::::::::::::",
":::::::::::::::::::::::*O@@OOOO@O&::::::::::::::::::::::::::::::::::::::::::::::::::::::::=O@OOOOOOOO@OO=:::::::::::::::::::::::",
":::::::::::::::::::::-*O@OOOOOO@O*::::::::::::::::::::::::::::::::::::::::::::::::::::::::-OOOOOOOOOOO@@%=-:::::::::::::::::::::",
"::::::::::::::::::::-*O@OOOOOOO@O*::::::::::::::::::::::::::::::::::::::::::::::::::::::::-OOOOOOOOOOOOO@O=--:::::::::::::::::::",
"::::::::::::::::::::*O%OOOOOOOO@O*::::::::::::::::::::::::::::::::::::::::::::::::::::::::-OOOOOOOOOOOOO@%O=:-::::::::::::::::::",
":::::::::::::::::::=%@@OOOOOOOO@O&::::::::::::::::::::::::::::::::::::::::::::::::::::::::=OOOOOOOOOOOOOO@@&=:::::::::::::::::::",
"::::::::::::::::::=@OOOOOOOOOOO@O&-:::::::::::::::::::::::::::::::::::::::::::::::::::::-:=O@OOOOOOOOOOOOOOO%-::::::::::::::::::",
":::::::::::::::::=%@@OOOOOOOOOOOO%-:::::::::::::::::::::::::::::::::::::::::::::::::::::::*O@OOOOOOOOOOOOOO@O&=:::::::::::::::::",
"::::::::::::::::-&O@OOOOOOOOOOOO@O=:::::::::::::::::::::::::::::::::::::::::::::::::::::::&O@OOOOOOOOOOOOOOO@O&:::::::::::::::::",
"::::::::::::::::*O@OOOOOOOOOOOOO@O*::::::::::::::::::::::::::::::::::::::::::::::::::::::-@OOOOOOOOOOOOOOOOOO@@=::::::::::::::::",
":::::::::::::::=O@OOOOOOOOOOOOOO@O%-:::::::::::::::::::::::::::::::::::::::::::::::::::::=O@OOOOOOOOOOOOOOOOOOO%::::::::::::::::",
"::::::::::::::=&@OOOOOOOOOOOOOOOO@O=:::::::::::::::::::::::::::::::::::::::::::::::::::::&O@OOOOOOOOOOOOOOOOOO@%*-::::::::::::::",
"::::::::::::::&O@OOOOOOOOOOOOOOOO@O&::::::::::::::::::::::::::::::::::::::::::::::::::::=O@OOOOOOOOOOOOOOOOOOOO@O=::::::::::::::",
":::::::::::::=%@OOOOOOOOOOOOOOOOOO@O=:::::::::::::::::::::::::::::::::::::::::::::::::::&O@OOOOOOOOOOOOOOOOOOOOO@%=:::::::::::::",
"::::::::::::-%O@OOOOOOOOOOOOOOOOOO@O&-:::::::::::::::::::::::::::::::::::::::::::::::-:=O@OOOOOOOOOOOOOOOOOOOOOO@O&-::::::::::::",
"::::::::::::*@@OOOOOOOOOOOOOOOOOOOO@O=:-::::::::::::::::::::::::::::::::::::::::::::::-%@@OOOOOOOOOOOOOOOOOOOOOOO@@=::::::::::::",
":::::::::::=%@OOOOOOOOOOOOOOOOOOOOOO@O=:-:::::::::::::::::::::::::::::::::::::::::::::*O@OOOOOOOOOOOOOOOOOOOOOOOOOO&-:::::::::::",
"::::::::::=&O@OOOOOOOOOOOOOOOOOOOOOO@@%-:::::::::::::::::::::::::::::::::::::::::::::=O@OOOOOOOOOOOOOOOOOOOOOOOOOOOO*-::::::::::",
"::::::::::=O@OOOOOOOOOOOOOOOOOOOOOOOO@O%-:-:::::::::::::::::::::::::::::::::::::::-:=O@OOOOOOOOOOOOOOOOOOOOOOOOOOOO@O=::::::::::",
"::::::::::&@@OOOOOOOOOOOOOOOOOOOOOOOOO@O%-:-:::::::::::::::::::::::::::::::::::::::=O@OOOOOOOOOOOOOOOOOOOOOOOOOOOOO@@*::::::::::",
":::::::::=@@OOOOOOOOOOOOOOOOOOOOOOOOOOO@O%=::::::::::::::::::::::::::::::::::::-:-*O@OOOOOOOOOOOOOOOOOOOOOOOOOOOOOO@@%=:::::::::",
"::::::::=&@@OOOOOOOOOOOOOOOOOOOOOOOOOOOO@OO=::-:::::::::::::::::::::::::::::::::-&O@OOOOOOOOOOOOOOOOOOOOOOOOOOOOOOOO@O&-::::::::",
"::::::::*O@OOOOOOOOOOOOOOOOOOOOOOOOOOOOOO@OO*=:::::::::::::::::::::::::::::::::=%O@OOOOOOOOOOOOOOOOOOOOOOOOOOOOOOOOOO@O=::::::::",
"::::::::O@OOOOOOOOOOOOOOOOOOOOOOOOOOOOOOOOO@O%=-:::::::::::::::::::::::::::::=&OO@OOOOOOOOOOOOOOOOOOOOOOOOOOOOOOOOOOO@@%::::::::",
":::::::=@@OOOOOOOOOOOOOOOOOOOOOOOOOOOOOOOOOO@OO%=-::::-:::::::::::::::::::-=*OO@OOOOOOOOOOOOOOOOOOOOOOOOOOOOOOOOOOOOOO@%-:::::::",
":::::::*O@OOOOOOOOOOOOOOOOOOOOOOOOOOOOOOOOOOOO@OO%*=-:::::::-----::::::--=&OO@@OOOOOOOOOOOOOOOOOOOOOOOOOOOOOOOOOOOOOOO@O=:::::::",
"::::::-&O@OOOOOOOOOOOOOOOOOOOOOOOOOOOOOOOOOOOOO@@OOO%*==--:::::::::--=*&OOO@@OOOOOOOOOOOOOOOOOOOOOOOOOOOOOOOOOOOOOOOOOOO@:::::::",
"::::::=O@OOOOOOOOOOOOOOOOOOOOOOOOOOOOOOOOOOOOOOOO@@@OOOO@&&******&&%OOOOO@@OOOOOOOOOOOOOOOOOOOOOOOOOOOOOOOOOOOOOOOOOOOOOO=::::::",
":::::-&O@OOOOOOOOOOOOOOOOOOOOOOOOOOOOOOOOOOOOOOOOOOOO@@@OOOOOOOOOOOOO@@@OOOOOOOOOOOOOOOOOOOOOOOOOOOOOOOOOOOOOOOOOOOOOOO@O&::::::",
":::::-OOOOOOOOOOOOOOOOOOOOOOOOOOOOOOOOOOOOOOOOOOOOOOOOOOO@@@@@@@@@@OOOOOOOOOOOOOOOOOOOOOOOOOOOOOOOOOOOOOOOOOOOOOOOOOOOO@O%=:::::",
":::::*@OOOOOOOOOOOOOOOOOOOOOOOOOOOOOOOOOOOOOOOOOOOOOOOOOOOOOOOOOOOOOOOOOOOOOOOOOOOOOOOOOOOOOOOOOOOOOOOOOOOOOOOOOOOOOOOOO@O*:::::",
":::::%O@OOOOOOOOOOOOOOOOOOOOOOOOOOOOOOOOOOOOOOOOOOOOOOOOOOOOOOOOOOOOOOOOOOOOOOOOOOOOOOOOOOOOOOOOOOOOOOOOOOOOOOOOOOOOOOOO@O*:::::",
"::::-&@@OOOOOOOOOOOOOOOOOOOOOOOOOOOOOOOOOOOOOOOOOOOOOOOOOOOOOOOOOOOOOOOOOOOOOOOOOOOOOOOOOOOOOOOOOOOOOOOOOOOOOOOOOOOOOOOO@O&:::::",
"::::=O@OOOOOOOOOOOOOOOOOOOOOOOOOOOOOOOOOOOOOOOOOOOOOOOOOOOOOOOOOOOOOOOOOOOOOOOOOOOOOOOOOOOOOOOOOOOOOOOOOOOOOOOOOOOOOOOOOOOO:::::",
"::::=O@OOOOOOOOOOOOOOOOOOOOOOOOOOOOOOOOOOOOOOOOOOOOOOOOOOOOOOOOOOOOOOOOOOOOOOOOOOOOOOOOOOOOOOOOOOOOOOOOOOOOOOOOOOOOOOOOOOOO:::::",
"::::*O@OOOOOOOOOOOOOOOOOOOOOOOOOOOOOOOOOOOOOOOOOOOOOOOOOOOOOOOOOOOOOOOOOOOOOOOOOOOOOOOOOOOOOOOOOOOOOOOOOOOOOOOOOOOOOOOOOOOO=::::",
"::::OOOOOOOOOOOOOOOOOOOOOOOOOOOOOOOOOOOOOOOOOOOOOOOOOOOOOOOOOOOOOOOOOOOOOOOOOOOOOOOOOOOOOOOOOOOOOOOOOOOOOOOOOOOOOOOOOOOOO@O%-:::",
"::::@OOOOOOOOOOOOOOOOOOOOOOOOOOOOOOOOOOOOOOOOOOOOOOOOOOOOOOOOOOOOOOOOOOOOOOOOOOOOOOOOOOOOOOOOOOOOOOOOOOOOOOOOOOOOOOOOOOOO@O&::::",
":::=OOOOOOOOOOOOOOOOOOOOOOOOOOOOOOOOOOOOOOOOOOOOOOOOOOOOOOOOOOOOOOOOOOOOOOOOOOOOOOOOOOOOOOOOOOOOOOOOOOOOOOOOOOOOOOOOOOOOOO@%=:::",
":::%O@OOOOOOOOOOOOOOOOOOOOOOOOOOOOOOOOOOOOOOOOOOOOOOOOOOOOOOOOOOOOOOOOOOOOOOOOOOOOOOOOOOOOOOOOOOOOOOOOOOOOOOOOOOOOOOOOOOOO@O*:::",
":::&O@OOOOOOOOOOOOOOOOOOOOOOOOOOOOOOOOOOOOOOOOOOOOOOOOOOOOOOOOOOOOOOOOOOOOOOOOOOOOOOOOOOOOOOOOOOOOOOOOOOOOOOOOOOOOOOOOOOOO@O*:::",
":::&O@OOOOOOOOOOOOOOOOOOOOOOOOOOOOOOOOOOOOOOOOOOOOOOOOOOOOOOOOOOOOOOOOOOOOOOOOOOOOOOOOOOOOOOOOOOOOOOOOOOOOOOOOOOOOOOOOOOOO@O*:::",
":::&O@OOOOOOOOOOOOOOOOOOOOOOOOOOOOOOOOOOOOOOOOOOOOOOOOOOOOOOOOOOOOOOOOOOOOOOOOOOOOOOOOOOOOOOOOOOOOOOOOOOOOOOOOOOOOOOOOOOOO@O*:::",
":::&@@OOOOOOOOOOOOOOOOOOOOOOOOOOOOOOOOOOOOOOOOOOOOOOOOOOOOOOOOOOOOOOOOOOOOOOOOOOOOOOOOOOOOOOOOOOOOOOOOOOOOOOOOOOOOOOOOOOOO@@&=::",
"::*O@OOOOOOOOOOOOOOOOOOOOOOOOOOOOOOOOOOOOOOOOOOOOOOOOOOOOOOOOOOOOOOOOOOOOOOOOOOOOOOOOOOOOOOOOOOOOOOOOOOOOOOOOOOOOOOOOOOOOOO@O=::",
"::*O@OOOOOOOOOOOOOOOOOOOOOOOOOOOOOOOOOOOOOOOOOOOOOOOOOOOOOOOOOOOOOOOOOOOOOOOOOOOOOOOOOOOOOOOOOOOOOOOOOOOOOOOOOOOOOOOOOOOOOO@O=::",
"::*O@OOOOOOOOOOOOOOOOOOOOOOOOOOOOOOOOOOOOOOOOOOOOOOOOOOOOOOOOOOOOOOOOOOOOOOOOOOOOOOOOOOOOOOOOOOOOOOOOOOOOOOOOOOOOOOOOOOOOOO@O=::",
"::*O@OOOOOOOOOOOOOOOOOOOOOOOOOOOOOOOOOOOOOOOOOOOOOOOOOOOOOOOOOOOOOOOOOOOOOOOOOOOOOOOOOOOOOOOOOOOOOOOOOOOOOOOOOOOOOOOOOOOOOO@O=::",
"::*O@OOOOOOOOOOOOOOOOOOOOOOOOOOOOOOOOOOOOOOOOOOOOOOOOOOOOOOOOOOOOOOOOOOOOOOOOOOOOOOOOOOOOOOOOOOOOOOOOOOOOOOOOOOOOOOOOOOOOOO@O=::",
"::*O@OOOOOOOOOOOOOOOOOOOOOOOOOOOOOOOOOOOOOOOOOOOOOOOOOOOOOOOOOOOOOOOOOOOOOOOOOOOOOOOOOOOOOOOOOOOOOOOOOOOOOOOOOOOOOOOOOOOOOO@O=::",
"::*O@OOOOOOOOOOOOOOOOOOOOOOOOOOOOOOOOOOOOOOOOOOOOOOOOOOOOOOOOOOOOOOOOOOOOOOOOOOOOOOOOOOOOOOOOOOOOOOOOOOOOOOOOOOOOOOOOOOOOOO@O=::",
"::*O@OOOOOOOOOOOOOOOOOOOOOOOOOOOOOOOOOOOOOOOOOOOOOOOOOOOOOOOOOOOOOOOOOOOOOOOOOOOOOOOOOOOOOOOOOOOOOOOOOOOOOOOOOOOOOOOOOOOOOO@O=::",
"::*O@OOOOOOOOOOOOOOOOOOOOOOOOOOOOOOOOOOOOOOOOOOOOOOOOOOOOOOOOOOOOOOOOOOOOOOOOOOOOOOOOOOOOOOOOOOOOOOOOOOOOOOOOOOOOOOOOOOOOOO@O=::",
"::*O@OOOOOOOOOOOOOOOOOOOOOOOOOOOOOOOOOOOOOOOOOOOOOOOOOOOOOOOOOOOOOOOOOOOOOOOOOOOOOOOOOOOOOOOOOOOOOOOOOOOOOOOOOOOOOOOOOOOOOO@O=::",
"::*O@OOOOOOOOOOOOOOOOOOOOOOOOOOOOOOOOOOOOOOOOOOOOOOOOOOOOOOOOOOOOOOOOOOOOOOOOOOOOOOOOOOOOOOOOOOOOOOOOOOOOOOOOOOOOOOOOOOOOOO@O=::",
"::*O@OOOOOOOOOOOOOOOOOOOOOOOOOOOOOOOOOOOOOOOOOOOOOOOOOOOOOOOOOOOOOOOOOOOOOOOOOOOOOOOOOOOOOOOOOOOOOOOOOOOOOOOOOOOOOOOOOOOOOO@O=::",
"::=%@@OOOOOOOOOOOOOOOOOOOOOOOOOOOOOOOOOOOOOOOOOOOOOOOOOOOOOOOOOOOOOOOOOOOOOOOOOOOOOOOOOOOOOOOOOOOOOOOOOOOOOOOOOOOOOOOOOOOOO@O=::",
":::&O@OOOOOOOOOOOOOOOOOOOOOOOOOOOOOOOOOOOOOOOOOOOOOOOOOOOOOOOOOOOOOOOOOOOOOOOOOOOOOOOOOOOOOOOOOOOOOOOOOOOOOOOOOOOOOOOOOOOO@O*-::",
":::&O@OOOOOOOOOOOOOOOOOOOOOOOOOOOOOOOOOOOOOOOOOOOOOOOOOOOOOOOOOOOOOOOOOOOOOOOOOOOOOOOOOOOOOOOOOOOOOOOOOOOOOOOOOOOOOOOOOOOO@O*:::",
":::&O@OOOOOOOOOOOOOOOOOOOOOOOOOOOOOOOOOOOOOOOOOOOOOOOOOOOOOOOOOOOOOOOOOOOOOOOOOOOOOOOOOOOOOOOOOOOOOOOOOOOOOOOOOOOOOOOOOOOO@@*:::",
":::%O@OOOOOOOOOOOOOOOOOOOOOOOOOOOOOOOOOOOOOOOOOOOOOOOOOOOOOOOOOOOOOOOOOOOOOOOOOOOOOOOOOOOOOOOOOOOOOOOOOOOOOOOOOOOOOOOOOOOO@O*:::",
":::*OOOOOOOOOOOOOOOOOOOOOOOOOOOOOOOOOOOOOOOOOOOOOOOOOOOOOOOOOOOOOOOOOOOOOOOOOOOOOOOOOOOOOOOOOOOOOOOOOOOOOOOOOOOOOOOOOOOOOO@%=:::",
"::::OOOOOOOOOOOOOOOOOOOOOOOOOOOOOOOOOOOOOOOOOOOOOOOOOOOOOOOOOOOOOOOOOOOOOOOOOOOOOOOOOOOOOOOOOOOOOOOOOOOOOOOOOOOOOOOOOOOOO@O&::::",
"::::OOOOOOOOOOOOOOOOOOOOOOOOOOOOOOOOOOOOOOOOOOOOOOOOOOOOOOOOOOOOOOOOOOOOOOOOOOOOOOOOOOOOOOOOOOOOOOOOOOOOOOOOOOOOOOOOOOOOO@O&::::",
"::::%OOOOOOOOOOOOOOOOOOOOOOOOOOOOOOOOOOOOOOOOOOOOOOOOOOOOOOOOOOOOOOOOOOOOOOOOOOOOOOOOOOOOOOOOOOOOOOOOOOOOOOOOOOOOOOOOOOOO@O&::::",
"::::=O@OOOOOOOOOOOOOOOOOOOOOOOOOOOOOOOOOOOOOOOOOOOOOOOOOOOOOOOOOOOOOOOOOOOOOOOOOOOOOOOOOOOOOOOOOOOOOOOOOOOOOOOOOOOOOOOOOOOO:::::",
"::::=O@OOOOOOOOOOOOOOOOOOOOOOOOOOOOOOOOOOOOOOOOOOOOOOOOOOOOOOOOOOOOOOOOOOOOOOOOOOOOOOOOOOOOOOOOOOOOOOOOOOOOOOOOOOOOOOOOOOOO:::::",
"::::=O@OOOOOOOOOOOOOOOOOOOOOOOOOOOOOOOOOOOOOOOOOOOOOOOOOOOOOOOOOOOOOOOOOOOOOOOOOOOOOOOOOOOOOOOOOOOOOOOOOOOOOOOOOOOOOOOOOOOO:::::",
"::::-&O@OOOOOOOOOOOOOOOOOOOOOOOOOOOOOOOOOOOOOOOOOOOOOOOOOOOOOOOOOOOOOOOOOOOOOOOOOOOOOOOOOOOOOOOOOOOOOOOOOOOOOOOOOOOOOOOO@O*:::::",
":::::&O@OOOOOOOOOOOOOOOOOOOOOOOOOOOOOOOOOOOOOOOOOOOOOOOOOOOOOOOOOOOOOOOOOOOOOOOOOOOOOOOOOOOOOOOOOOOOOOOOOOOOOOOOOOOOOOOO@O*:::::",
":::::=OOOOOOOOOOOOOOOOOOOOOOOOOOOOOOOOOOOOOOOOOOOOOOOOOOOOOOOOOOOOOOOOOOOOOOOOOOOOOOOOOOOOOOOOOOOOOOOOOOOOOOOOOOOOOOOOOO@%=:::::",
"::::::O@OOOOOOOOOOOOOOOOOOOOOOOOOOOOOOOOOOOOOOOOOOOOOOOOOOOOOOOOOOOOOOOOOOOOOOOOOOOOOOOOOOOOOOOOOOOOOOOOOOOOOOOOOOOOOOO@O%::::::",
"::::::=O@OOOOOOOOOOOOOOOOOOOOOOOOOOOOOOOOOOOOOOOOOOOOOOOOOOOOOOOOOOOOOOOOOOOOOOOOOOOOOOOOOOOOOOOOOOOOOOOOOOOOOOOOOOOOOO@@*-:::::",
"::::::=%@OOOOOOOOOOOOOOOOOOOOOOOOOOOOOOOOOOOOOOOOOOOOOOOOOOOOOOOOOOOOOOOOOOOOOOOOOOOOOOOOOOOOOOOOOOOOOOOOOOOOOOOOOOOOOO@O-::::::",
":::::::*O@OOOOOOOOOOOOOOOOOOOOOOOOOOOOOOOOOOOOOOOOOOOOOOOOOOOOOOOOOOOOOOOOOOOOOOOOOOOOOOOOOOOOOOOOOOOOOOOOOOOOOOOOOOOOOO&-::::::",
":::::::*O@OOOOOOOOOOOOOOOOOOOOOOOOOOOOOOOOOOOOOOOOOOOOOOOOOOOOOOOOOOOOOOOOOOOOOOOOOOOOOOOOOOOOOOOOOOOOOOOOOOOOOOOOOOOO@O=:-:::::",
":::::::-O@OOOOOOOOOOOOOOOOOOOOOOOOOOOOOOOOOOOOOOOOOOOOOOOOOOOOOOOOOOOOOOOOOOOOOOOOOOOOOOOOOOOOOOOOOOOOOOOOOOOOOOOOOOO@@@=:::::::",
":::::::-%OOOOOOOOOOOOOOOOOOOOOOOOOOOOOOOOOOOOOOOOOOOOOOOOOOOOOOOOOOOOOOOOOOOOOOOOOOOOOOOOOOOOOOOOOOOOOOOOOOOOOOOOOOOO@O&::::::::",
"::::::::=@@OOOOOOOOOOOOOOOOOOOOOOOOOOOOOOOOOOOOOOOOOOOOOOOOOOOOOOOOOOOOOOOOOOOOOOOOOOOOOOOOOOOOOOOOOOOOOOOOOOOOOOOOOOO@-::::::::",
"::::::::-&O@OOOOOOOOOOOOOOOOOOOOOOOOOOOOOOOOOOOOOOOOOOOOOOOOOOOOOOOOOOOOOOOOOOOOOOO@@OOOOOOOOOOOOOOOOOOOOOOOOOOOOOOO@@=-::::::::",
":::::::::=%@@OOOOOOOOOOOOOOOOOOOOOOOOOOOO@@OOOOOOOOOOOOOOOOOOOOOOOOOOOOOOOOOOOOOOO@OO@OOOOOOOOOOOOOOOOOOOOOOOOOOOOOO%O=:::::::::",
"::::::::::*O@OOOOOOOOOOOOOOOOOOOOOOOOOOOOOOOOOOOOOOOOOOOOOOOOOOOOOOOOOOOOOOOOOOOO@O&&O@OOOOOOOOOOOOOOOOOOOOOOOOOOOO@O=-:::::::::",
"::::::::::=&@OOOOOOOOOOOOOOOOOOOOOOOOOO@%*o%@OOOOOOOOOOOOOOOOOOOOOOOOOOOOOOOOOOO@O&Xo%@@OOOOOOOOOOOOOOOOOOOOOOOOOOO@&-::::::::::",
":::::::::::=O@OOOOOOOOOOOOOOOOOOOOOOOO@O%..*O@OOOOOOOOOOOOOOOOOOOOOOOOOOOOOOOOOO@%o..o@O@OOOOOOOOOOOOOOOOOOOOOOOOO@O=:::::::::::",
":::::::::::-&O@OOOOOOOOOOOOOOOOOOOOOOO@%oXX *%@OOOOOOOOOOOOOOOOOOOOOOOOOOOOOOOO@O*....o%OOOOOOOOOOOOOOOOOOOOOOOOO@O*-:::::::::::",
"::::::::::::=%@OOOOOOOOOOOOOOOOOOOOOO@%o.X...&O@OOOOOOOOOOOOOOOOOOOOOOOOOOOOOO@O& X....o%@OOOOOOOOOOOOOOOOOOOOOO@@&=::::::::::::",
":::::::::::::&O@OOOOOOOOOOOOOOOOOOOO@O&.X..XX %O@OOOOOOOOOOOOOOOOOOOOOOOOOOOO@O& .....X.*O@OOOOOOOOOOOOOOOOOOOOO@O*:-:::::::::::",
"::::::::::::--&@@OOOOOOOOOOOOOOOOOO@@&XX...... &O@OOOOOOOOOOOOOOOOOOOOOOOOOO@O% .X.....XX*O@OOOOOOOOOOOOOOOOOOO@O*--::::::::::::",
"::::::::::::::=O@OOOOOOOOOOOOOOOOOO@Oo.X.....X. %O@OOOOOOOOOOOOOOOOOOOOOOO@OO% ...........&OOOOOOOOOOOOOOOOOOOO@%=::::::::::::::",
":::::::::::::::=O@OOOOOOOOOOOOOOOO@%o...........o%OO@OOOOOOOOOOOOOOOOOOOO@OO& .X..........X*%@OOOOOOOOOOOOOOOO@%=:::::::::::::::",
":::::::::::::::-&@@OOOOOOOOOOOOOO%Oo.X........... o@O@@OOOOOOOOOOOOOOOO@OO&o .............X.&O@OOOOOOOOOOOOOO@@*::::::::::::::::",
"::::::::::::::-:=O@OOOOOOOOOOOOO@O& ............... *OOO@@@@OOOOOO@@@@@O%o ...............X.o%O@OOOOOOOOOOOOO@@-::::::::::::::::",
"::::::::::::::::-&O@OOOOOOOOOOO@O& ...............X..oo&OOOO@@@@@@OOOO@o ..X...............X. &O@OOOOOOOOOOO@O*:::::::::::::::::",
":::::::::::::::::-*O@OOOOOOOOOOO%o.................X... o&&%OOOOOO&&*oo....................... &O@OOOOOOOOO@O=::::::::::::::::::",
"::::::::::::::::::-&O@OOOOOOOO@%o.X..................X.....ooooooo ....X....................... @O@OOOOOOO@O*:::::::::::::::::::",
":::::::::::::::::::=@@@OOOOOO@Oo........................X............XX........................Xo%O@OOOOO@O%-:::::::::::::::::::",
"::::::::::::::::::::=%O@OOOO@O* X................................................................o%OOOOO@O&=::::::::::::::::::::",
":::::::::::::::::::::=%O@OO@O*....................................................................o%@OO@O&=:::::::::::::::::::::",
"::::::::::::::::::::::=%O@OOO .X...................................................................*O@@O&-::::::::::::::::::::::",
":::::::::::::::::::::::-%O%@Oo..X.................................................................o&@%O&-:::::::::::::::::::::::",
"::::::::::::::::::::::::=%O@@%o...............................................................X..*OOOO&-::::::::::::::::::::::::",
":::::::::::::::::::::::::-=OO@@*o..X........................................................... *O%O%=-:::::::::::::::::::::::::",
":::::::::::::::::::::::::::=%O@O@o........................................................X.. *&OOO&=:::::::::::::::::::::::::::",
"::::::::::::::::::::::::::-:=&@@@O*o.......................................................Xo&OOO%*-:-::::::::::::::::::::::::::",
"::::::::::::::::::::::::::::::=@O@OOo ................................................X...o*OO@O%=::::::::::::::::::::::::::::::",
":::::::::::::::::::::::::::::::=&@@@O&o ...............................................  *OO@O%&=:::::::::::::::::::::::::::::::",
"::::::::::::::::::::::::::::::::-=%OOOO%* ...X........................................o&@O@OO&=:::::::::::::::::::::::::::::::::",
"::::::::::::::::::::::::::::::::::-*%OOOO%&o ......................................Xo&OOOOO&=-::::::::::::::::::::::::::::::::::",
"::::::::::::::::::::::::::::::::::::-=%OO@O@%* ..X...........................XX..o*&OO@OO&=-::::::::::::::::::::::::::::::::::::",
"::::::::::::::::::::::::::::::::::::::-=%OOO@O%o ..X.......................X... &%OOOOO&&-::::::::::::::::::::::::::::::::::::::",
"::::::::::::::::::::::::::::::::::::::::-=&OOO@OoXX...XX...............XX....XX*O@OOO*=-::::::::::::::::::::::::::::::::::::::::",
"::::::::::::::::::::::::::::::::::::::::::--=*O*-:;XX........XXXXX........XXX::=OO**=-::::::::::::::::::::::::::::::::::::::::::",
"::::::::::::::::::::::::::::::::::::::::::::::=::::::;XXXXX..........XXXXX;::;;-==::::::::::::::::::::::::::::::::::::::::::::::",
":::::::::::::::::::::::::::::::::::::::::::::::::::::::::;;;XXXXXXX;;;::::::::::::::::::::::::::::::::::::::::::::::::::::::::::",
"::::::::::::::::::::::::::::::::::::::::::::::::::::::::::::::::::::::::::::::::-:::::::::::::::::::::::::::::::::::::::::::::::",
"::::::::::::::::::::::::::::::::::::::::::::::::::::::::::::::::::::::::::::::::::::::::::::::::::::::::::::::::::::::::::::::::",
"::::::::::::::::::::::::::::::::::::::::::::::::::::::::::::::::::::::::::::::::::::::::::::::::::::::::::::::::::::::::::::::::"
};
