/* XPM */
static char *pptp__1[] = {
/* columns rows colors chars-per-pixel */
"16 16 16 1 ",
"  c #FEF805",
". c #EFE710",
"X c #9E9976",
"o c #615EA7",
"O c #0000F7",
"+ c #0202F7",
"@ c #0808F6",
"# c #0000FA",
"$ c #1616F7",
"% c #3535ED",
"& c #5F5FF4",
"* c #E4E19D",
"= c #9797F4",
"- c #CDCDF6",
"; c #F9F9F9",
": c None",
/* pixels */
"::::-:::::--::::",
":::==::::::%=:::",
"::=O=:::::;%O=::",
":-$#%:::::=@+$-:",
":&O@#%---=$#@O&:",
":$OOO#O@@O#O+O%:",
":$#OO+#O#+OOOO@:",
":@OOOOOOOOOOO+O:",
":@#OOOOOOOOOO#O:",
":$OOO+OOOO+OOO$:",
":&#+O#+++##O+O&:",
":-@+#o###@o#+@-:",
"::&#o X%%X o#&::",
":::&X      *&:::",
"::::=X....X=::::",
":::::::**:::::::"
};
