/* XPM */
static char *pptp__4[] = {
/* columns rows colors chars-per-pixel */
"64 64 16 1 ",
"  c #FAEF01",
". c #FEF901",
"X c #999371",
"o c #E8E146",
"O c #0202F9",
"+ c #0000FB",
"@ c #0202FB",
"# c #0000FD",
"$ c #0808F8",
"% c #1E1DF4",
"& c #3D3CEE",
"* c #605FE5",
"= c #9998F8",
"- c #DEDEF9",
"; c #FEFEFC",
": c None",
/* pixels */
"::::::::::::::::::;::::::::::::::::::::::;:;;;-:::::::::::::::::",
"::::::::::::::::;;-;::::::::::::::::::::::;==-;;::::::::::::::::",
":::::::::::::::;-*-;::::::::::::::::::::::;-$%*-;:::::::::::::::",
":::::::::::::;;=%&:::::::::::::::::::::::::;=++%=;::::::::::::::",
"::::::::::::;-*++=;::::::::::::::::::::::::;-$$#+*;;::::::::::::",
":::::::::::;-&+++-;::::::::::::::::::::::::;-%#$+#&-;:::::::::::",
"::::::::::;=$#$#%-;:::::::::::::::::::::::::;&+@+@+%-;::::::::::",
":::::::::;=$#@+#%-;:::::::::::::::::::::::::;*+$++$+%-;:::::::::",
"::::::::;-%#@+@#%-;::::::::::::::::::::::::::&+@+++@+%-;::::::::",
":::::::;-%#@+++@+-;::::::::::::::::::::::::;-%#@+++++#&-;:::::::",
":::::::;*+@++++@+=;::::::::::::::::::::::::;-@+++++++$+=;:::::::",
"::::;:;=+++++++@#&:::::::::::::::::::::::::;*+@++++++@@$=;::::::",
":::::;-%@@++++++@+=;::::::::::::::::::::::;-$+@+++++++@#%-;:::::",
"::::::*#@+++++++@@&-::::::::::::::::::::::;*+@+++++++++$+=;:::::",
"::::;=+@+++++++++@+&:;:::::::::::::::::::;=+@++++++++++@+$=;::::",
":::::&+@++++++++++++*-;::::::::::::::::;;=#+@+++++++++++@#&:::::",
":::;=++++++++++++++$+&-;;::::::::::::;;-*+@@+++++++++++++@@=;:::",
"::::&+@+++++++++++++@+$=-;;;;:::::;;;-=%#@+++++++++++++++@+&;:::",
"::;-$@@++++++++++++++@#+%*=--;;:;;-==%+#@++++++++++++++++@@%-;::",
";:;=+@+++++++++++++++++$+++$%&&&&&%++#@@++++++++++++++++++@+=;::",
"::-%@@++++++++++++++++++@@@+######+@$@++++++++++++++++++++@@%-;:",
"::=+@++++++++++++++++++++++@@@@@+@@++++++++++++++++++++++++#$-;:",
"::=@@++++++++++++++++++++++++++++++++++++++++++++++++++++++@+-;:",
"::*+@++++++++++++++++++++++++++++++++++++++++++++++++++++++++=;:",
":-&+@++++++++++++++++++++++++++++++++++++++++++++++++++++++@+&-:",
":-@@+++++++++++++++++++++++++++++++++++++++++++++++++++++++@#$-:",
":-+@+++++++++++++++++++++++++++++++++++++++++++++++++++++++@#$-:",
":=+@++++++++++++++++++++++++++++++++++++++++++++++++++++++++@@=:",
":*#@++++++++++++++++++++++++++++++++++++++++++++++++++++++++@#=:",
":*+@++++++++++++++++++++++++++++++++++++++++++++++++++++++++@+=:",
":*+@++++++++++++++++++++++++++++++++++++++++++++++++++++++++@+=:",
":*+@++++++++++++++++++++++++++++++++++++++++++++++++++++++++@+=:",
":*#@++++++++++++++++++++++++++++++++++++++++++++++++++++++++@+=:",
":=+@++++++++++++++++++++++++++++++++++++++++++++++++++++++++@@=:",
":-OO+++++++++++++++++++++++++++++++++++++++++++++++++++++++@#$-:",
":-#O+++++++++++++++++++++++++++++++++++++++++++++++++++++++@#$-:",
":-%#@#+++++++++++++++++++++++++++++++++++++++++++++++++++++@+&-:",
":;&+O++++++++++++++++++++++++++++++++++++++++++++++++++++++@+*;:",
":;=+@#+++++++++++++++++++++++++++++++++++++++++++++++++++++@#=;:",
":;=+O+++++++++++++++++++++++++++++++++++++++++++++++++++++++$-;:",
":;-$#@++++++++++++++++++++++++++++++++++++++++++++++++++++@#%-;:",
"::;*#+++++++++++++++++++++++++++++++++++++++++++++++++++++@+*;::",
"::;=$@++++++++++++++++++++++++++++++++++++++++++++++++++++@$=;::",
"::;-%@@++++++++++++++++++++++++++++++++++++++++++++++++++@+%-;::",
":::;*+@+++++++++++++OO+++++++++++++++++++O@++++++++++++++@+=;:::",
":::;-%@@+++++++++++O##O#++++++++++++++++@++@++++++++++++@@%-;:::",
"::::;=+@#+++++++++O#%&#O#++++++++++++++@#X&#O++++++++++@@+=;::::",
"::::::&#O+++++++++OOXo&#O#+++++++++++#@#&.o&+@+++++++++@+&::::::",
":::::;=+@++++++++$#X..o%#$+++++++++++$#%o..o%+@+++++++@@$-;:::::",
"::::::;=+@+++++#+#&o. .o%#OOO+++++OOO#%o.  .o%@+++++++$+=;::::::",
":::::::;&#@++++@#%o.   .o*###OOOOO+#$*o.    .o$#@++++$+*::::::::",
":::::::;=$$@++@@$X.     ..X*$#####$&X..      .X$@@++@+$-;:::::::",
"::::::::;=+$@+O+X.        ..oXXXXXo .         .X+#+@@@=;::::::::",
":::::::::;*+@O@X.                              .X$@@+=;:::::::::",
"::::::::::;=+#&.                                .*#+=;::::::::::",
":::::::::::;=$$X..                            ..X%$=;:::::::::::",
"::::::::::::;-%#*o.                         ..o*#&-;::::::::::::",
":::::::::::::;-*#$X...                    ..oX$#*-;:::::::::::::",
"::::::::::::::;;=%#%Xo..                ..oX%#&=;;::::::::::::::",
"::::::::::::::::;-=&#$*o.              .X*$#%=;;::::::::::::::::",
":::::::::::::::::;;;=&$$              oX##&=-;::::::::::::::::::",
":::::::::::::::::::;;;-=::            ;-=-:;;:::::::::::::::::::",
"::::::::::::::::::::::;;;:;;;;   :;;;;:;;;;:::::::::::::::::::::",
"::::::::::::::::::::::::::::::;;;:::::::::::::::::::::::::::::::"
};
